<?xml version="1.0" standalone="no"?>
<!DOCTYPE svg PUBLIC "-//W3C//DTD SVG 20010904//EN"
 "http://www.w3.org/TR/2001/REC-SVG-20010904/DTD/svg10.dtd">
<svg version="1.0" xmlns="http://www.w3.org/2000/svg"
 width="479.000000pt" height="93.000000pt" viewBox="0 0 479.000000 93.000000"
 preserveAspectRatio="xMidYMid meet">

<g transform="translate(0.000000,93.000000) scale(0.100000,-0.100000)"
fill="#000000" stroke="none">
<path d="M356 915 c-165 -42 -299 -172 -340 -330 -43 -161 1 -326 117 -444 65
-66 136 -106 223 -127 171 -39 336 48 269 142 -18 27 -74 54 -110 54 -42 0
-85 -30 -85 -60 l0 -25 13 25 c27 55 117 28 117 -35 0 -100 -204 -115 -335
-25 -87 60 -137 184 -116 289 35 174 181 329 376 396 31 11 97 20 175 24 l125
6 -58 39 c-114 75 -251 101 -371 71z"/>
<path d="M625 761 c-141 -22 -248 -77 -356 -182 -93 -90 -124 -155 -124 -264
0 -69 4 -86 27 -127 59 -99 167 -157 271 -145 86 11 125 54 93 102 -11 17 -25
25 -44 24 -27 0 -27 -1 -4 -11 33 -16 29 -54 -8 -73 -93 -48 -220 35 -220 144
1 118 124 247 272 287 111 29 332 11 379 -32 21 -19 21 -19 14 21 -20 114 -60
204 -105 236 -30 22 -123 31 -195 20z"/>
<path d="M1110 559 c0 -172 10 -207 65 -233 41 -20 125 -21 170 -2 57 24 65
54 65 231 l0 155 -39 0 -40 0 -3 -146 c-3 -131 -5 -147 -22 -160 -28 -20 -70
-17 -92 7 -16 18 -19 40 -22 160 l-4 139 -39 0 -39 0 0 -151z"/>
<path d="M1491 688 c-4 -13 -14 -95 -20 -183 -7 -88 -15 -168 -17 -177 -5 -15
2 -18 39 -18 l45 0 6 83 c4 45 9 100 13 122 6 39 6 38 46 -73 60 -169 83 -170
137 -5 18 54 36 102 40 106 4 5 11 -40 15 -100 3 -59 8 -114 10 -120 3 -8 21
-13 46 -13 l42 0 -6 58 c-4 31 -12 121 -18 200 l-12 142 -47 0 -47 0 -44 -115
c-24 -63 -46 -112 -49 -109 -2 3 -23 54 -46 112 l-41 107 -42 3 c-35 3 -42 0
-50 -20z"/>
<path d="M1930 510 l0 -200 45 0 44 0 3 87 3 86 74 -86 73 -87 99 0 c98 0 100
0 109 26 6 14 10 49 11 77 0 29 4 72 7 97 l7 45 39 -113 c41 -117 65 -149 91
-120 7 7 30 63 51 123 l39 110 7 -45 c3 -25 7 -68 7 -97 1 -80 14 -103 56
-103 42 0 41 -6 20 210 -8 80 -15 155 -15 168 0 20 -5 22 -47 22 l-48 0 -44
-116 c-27 -71 -47 -111 -52 -103 -4 7 -25 59 -46 116 l-38 103 -46 0 -46 0 -6
-52 c-3 -29 -11 -117 -18 -195 -7 -79 -15 -143 -19 -143 -4 0 -46 45 -94 101
-79 90 -87 102 -74 117 8 9 43 51 78 92 l64 75 -49 3 c-49 3 -51 3 -95 -49
-25 -29 -57 -67 -72 -84 l-27 -30 -1 83 0 82 -45 0 -45 0 0 -200z"/>
<path d="M2910 509 l0 -201 98 4 c113 5 145 18 168 66 22 46 6 105 -35 130
-29 17 -29 18 -10 41 23 28 25 88 4 118 -20 29 -73 43 -157 43 l-68 0 0 -201z
m148 119 c7 -7 12 -19 12 -27 0 -21 -30 -51 -52 -51 -15 0 -18 8 -18 45 0 40
2 45 23 45 13 0 28 -5 35 -12z m22 -168 c24 -24 24 -29 4 -58 -11 -15 -25 -22
-50 -22 l-34 0 0 50 c0 49 1 50 30 50 17 0 39 -9 50 -20z"/>
<path d="M3230 510 l0 -200 45 0 45 0 0 200 0 200 -45 0 -45 0 0 -200z"/>
<path d="M3360 670 l0 -40 45 0 45 0 0 -160 0 -160 45 0 45 0 0 160 0 160 45
0 45 0 0 40 0 40 -135 0 -135 0 0 -40z"/>
<path d="M3670 559 c0 -172 10 -207 65 -233 41 -20 125 -21 170 -2 57 24 65
54 65 231 l0 155 -39 0 -40 0 -3 -146 c-3 -131 -5 -147 -22 -160 -28 -20 -70
-17 -92 7 -16 18 -19 40 -22 160 l-4 139 -39 0 -39 0 0 -151z"/>
<path d="M4030 510 l0 -200 45 0 44 0 3 126 3 126 80 -126 80 -126 43 0 42 0
0 200 0 200 -40 0 -40 0 0 -120 c0 -66 -3 -120 -7 -120 -5 0 -43 54 -86 120
l-77 120 -45 0 -45 0 0 -200z"/>
<path d="M4520 691 c-19 -10 -48 -37 -65 -60 -27 -39 -30 -50 -30 -120 0 -69
3 -82 28 -118 42 -61 95 -86 172 -81 105 6 165 69 165 173 l0 45 -90 0 -90 0
0 -30 c0 -29 2 -30 45 -30 38 0 45 -3 45 -20 0 -55 -97 -83 -144 -42 -60 55
-61 145 -1 200 32 29 42 33 73 29 19 -4 45 -15 57 -27 l21 -20 22 23 c31 33
27 50 -17 75 -50 28 -141 30 -191 3z"/>
<path d="M574 471 c-126 -34 -221 -97 -260 -173 -51 -98 -9 -198 82 -198 l25
0 -25 22 c-58 51 -36 124 51 175 44 26 56 28 153 28 93 0 110 -3 148 -25 24
-13 54 -42 66 -63 l23 -38 23 38 c25 42 50 116 50 149 0 75 -193 124 -336 85z"/>
</g>
</svg>
