<?xml version="1.0" encoding="utf-8"?>
<!-- Generator: Adobe Illustrator 25.0.0, SVG Export Plug-In . SVG Version: 6.00 Build 0)  -->
<svg version="1.1" id="a154b3ae-224e-4b43-86b8-0ffeb27982c5"
	 xmlns="http://www.w3.org/2000/svg" xmlns:xlink="http://www.w3.org/1999/xlink" x="0px" y="0px" viewBox="0 0 1144 637"
	 style="enable-background:new 0 0 1144 637;" xml:space="preserve">
<style type="text/css">
	.st0{opacity:0.1;fill:#B7B6D4;enable-background:new    ;}
	.st1{opacity:0.1;}
</style>
<path class="st0" d="M1144,416.3c0.1,33.1-9,65.6-26.1,93.9c0,34.6-16.1,66-42.3,88.9c-6.6,5.7-13.6,10.8-21.1,15.3
	c-0.3,0.2-0.6,0.4-0.9,0.5c-0.6,0.3-1.1,0.7-1.7,1l-0.5,0.3l0,0c-2.4,1.3-4.8,2.7-7.3,3.9c-22.9,11.3-48.2,17.1-73.8,17H217.2
	c-6,0-11.9-0.2-17.8-0.7c-20.9-1.6-41.5-6.4-61.1-14.1c-3.8-1.5-7.6-3.1-11.2-4.9c-1.7-0.8-3.5-1.7-5.2-2.5
	c-1.1-0.5-2.1-1.1-3.2-1.7c-6.4-3.4-12.7-7.2-18.7-11.3c-5.5-3.8-10.8-7.8-15.8-12.1c-34-29.2-55.1-69.6-55.1-114.2
	C10,446.1-0.1,411.8,0,376.8c0-99.1,79.2-179.5,177-179.5c3,0,6,0.1,9,0.3c0.4,0,0.9,0,1.3,0.1c16.5-28.1,38.5-53.9,65-76.6
	c72.2-62,177.8-101,295.4-101c98.8,0,189.2,27.6,258.3,73.1c26.2-14.8,55.8-22.6,86-22.5c97.7,0,177,80.4,177,179.5
	c0,6.3-0.3,12.5-1,18.8C1115.8,302.7,1144.2,357.7,1144,416.3z"/>
<path class="st0" d="M910.7,274v-10.7c20-8.1,29.6-30.9,21.5-50.9s-30.9-29.6-50.9-21.5s-29.6,30.9-21.5,50.9
	c4,9.8,11.7,17.5,21.5,21.5V274c-9.8,2.7-18.6,8.1-25.5,15.5c-7.3-11-18.4-19-31.1-22.5v-10.7c20-8.1,29.6-30.9,21.5-50.9
	s-30.9-29.6-50.9-21.5s-29.6,30.9-21.5,50.9c4,9.8,11.7,17.5,21.5,21.5V267c-8.7,2.4-16.7,6.9-23.2,13.2
	c-7.3-9.8-17.6-16.9-29.4-20.2v-10.7c20-8.1,29.6-30.9,21.5-50.9s-30.9-29.6-50.9-21.5s-29.6,30.9-21.5,50.9
	c4,9.8,11.7,17.5,21.5,21.5V260c-10,2.8-19,8.4-26,16.1c-6.3-16.2-19.9-28.4-36.6-33.1v-10.7c20-8.1,29.6-30.9,21.5-50.9
	s-30.9-29.6-50.9-21.5s-29.6,30.9-21.5,50.9c4,9.8,11.7,17.5,21.5,21.5V243c-21.9,6.1-37.8,25.1-40,47.8c-5-3.5-10.6-6.1-16.6-7.8
	v-10.7c20-8.1,29.6-30.9,21.5-50.9s-30.9-29.6-50.9-21.5s-29.6,30.9-21.5,50.9c4,9.8,11.7,17.5,21.5,21.5V283
	c-15.1,4.2-27.7,14.6-34.7,28.7c-4.6-3-9.7-5.2-15-6.7v-10.7c20-8.1,29.6-30.9,21.5-50.9c-8.1-20-30.9-29.6-50.9-21.5
	s-29.6,30.9-21.5,50.9c4,9.8,11.7,17.5,21.5,21.5V305c-5,1.4-9.8,3.5-14.2,6.2c-7-13.8-19.5-24.1-34.4-28.2v-10.7
	c20-8.1,29.6-30.9,21.5-50.9s-30.9-29.6-50.9-21.5s-29.6,30.9-21.5,50.9c4,9.8,11.7,17.5,21.5,21.5V283c-16.1,4.5-29.3,16-35.9,31.4
	c-5.6-4.3-12-7.5-18.8-9.4v-10.7c20-8.1,29.6-30.9,21.5-50.9s-30.9-29.6-50.9-21.5s-29.6,30.9-21.5,50.9c4,9.8,11.7,17.5,21.5,21.5
	V305c-23.8,6.6-40.3,28.3-40.3,53v248H364v-22h52v22h110v-22h79v-40h68v17h82v7h86v7h110V327C951,302.3,934.5,280.6,910.7,274z"/>
<g class="st1">
	<path d="M212.9,447.8c-0.5,0.5-1,1-1.6,1.5c0.6,0,1.1-0.1,1.7-0.2C213,448.7,212.9,448.2,212.9,447.8z"/>
	<path d="M203.8,441.8c1.3-0.1,2.5-0.2,3.7-0.4c1.1-0.1,2.2-0.4,3.2-0.9c-0.5-1-1.1-2-1.7-2.9c-0.6,0.4-1.3,0.7-2,0.8
		C206,439.7,205,440.8,203.8,441.8z"/>
	<path d="M173.3,452.5c0-11.6,9.4-21.1,21-21.1c4.1,0,8,1.2,11.5,3.4l0.3-0.3c-8.7-7.7-22-7-29.8,1.7c-7.7,8.7-7,22,1.7,29.8
		c0.1,0.1,0.2,0.1,0.2,0.2C175,462.3,173.3,457.5,173.3,452.5z"/>
</g>
<g class="st1">
	<path d="M221.2,475.4c1.2-0.1,2.5-0.2,3.7-0.4c1.5-0.1,2.9-0.6,4.2-1.4c2.8,2.1,4.7,5.3,5,8.8c0-0.4,0.1-0.9,0.1-1.3
		c0-3.9-1.8-7.7-5-10c-1.3,0.8-2.7,1.3-4.2,1.4l-1,0.1C223.1,473.6,222.2,474.5,221.2,475.4z"/>
	<path d="M221.7,471.1c0.4,0,0.8,0,1.2,0.1c0.6-0.7,1.3-1.4,1.9-2.2c-6.6-1.8-13.4,2.2-15.2,8.8c-0.3,1.1-0.4,2.1-0.4,3.2
		c0,0.4,0,0.8,0.1,1.2C210,476,215.3,471.1,221.7,471.1z"/>
</g>
<g class="st1">
	<path d="M162.6,475.4c-1.2-0.1-2.5-0.2-3.7-0.4c-1.5-0.1-2.9-0.6-4.2-1.4c-2.8,2.1-4.7,5.3-5,8.8c0-0.4-0.1-0.9-0.1-1.3
		c0-3.9,1.8-7.7,5-10c1.3,0.8,2.7,1.3,4.2,1.4l1,0.1C160.7,473.6,161.6,474.5,162.6,475.4z"/>
	<path d="M162.1,471.1c-0.4,0-0.8,0-1.3,0.1c-0.6-0.7-1.3-1.4-1.9-2.2c6.6-1.8,13.4,2.2,15.2,8.8c0.3,1.1,0.4,2.1,0.4,3.2
		c0,0.4,0,0.8-0.1,1.2C173.8,476,168.5,471.1,162.1,471.1z"/>
</g>
<image style="overflow:visible;" width="1024" height="1024" xlink:href="../../../../../Vanus File/Kominfo Sitaro/Foto Pejabat/Pj - Sekda.png"  transform="matrix(0.8228 0 0 0.8228 157.9042 -88.7702)">
</image>
</svg>
